<?xml version="1.0" encoding="utf-8"?>
<!-- Generator: Adobe Illustrator 19.0.0, SVG Export Plug-In . SVG Version: 6.00 Build 0)  -->
<svg version="1.1" id="Layer_1" xmlns="http://www.w3.org/2000/svg" xmlns:xlink="http://www.w3.org/1999/xlink" x="0px" y="0px"
	 viewBox="67.5 223.3 279.1 338.8" style="enable-background:new 67.5 223.3 279.1 338.8;" xml:space="preserve">
<style type="text/css">
	.st0{fill:#EFF8F7;}
	.st1{fill:#213B78;stroke:#213B78;stroke-width:6;stroke-miterlimit:10;}
</style>
<path class="st0" d="M335,478v12.9c0,9.4-7.6,17.1-17.1,17.1H96.1c-9.4,0-17.1-7.6-17.1-17.1v-12.8c0-16.5,9.1-29.9,25.6-29.9
	c4.5-1.6,8.8-3.8,12.8-6.4c7.2-3.9,12-11.1,12.8-19.2v-76.8c0-35.9,24.8-67,59.7-74.9c1.4-0.3,2.8-0.6,4.2-0.8l0,0
	c4.2-0.8,8.6-1.1,12.9-1.1c5.7,0,11.5,0.6,17.1,1.9c35,8,59.8,39.1,59.7,74.9v76.8c0,17.1,25.6,25.6,25.6,25.6
	c7.3-0.3,14.3,2.9,18.9,8.5C332.9,462.9,335.3,470.3,335,478z"/>
<path class="st0" d="M241.1,507.9v8.5c0,18.9-15.3,34.1-34.1,34.1c-4.4,0-8.8-0.8-12.8-2.6c-12.9-5.2-21.3-17.7-21.3-31.6v-8.5
	H241.1z"/>
<path class="st0" d="M224.1,251.9v18.9c-11.2-2.5-22.9-2.5-34.1,0v-18.9c0-9.4,7.6-17.1,17.1-17.1S224.1,242.5,224.1,251.9z"/>
<path class="st1" d="M317.9,516.5H96.1c-14.1,0-25.6-11.5-25.6-25.6v-12.8c0-22,13.3-37.5,32.5-38.4c3.4-1.3,6.6-3,9.6-5
	c4.2-2.7,9-7.1,9-12v-76.8c0-39.9,27.5-74.4,66.4-83.3c12.5-2.8,25.4-2.8,37.8,0c38.9,8.8,66.5,43.4,66.5,83.3v76.8
	c0,8.5,13.3,15,18.7,17.1c9.4,0.2,18.2,4.6,24,11.9c5.7,7.6,8.8,16.9,8.5,26.4v12.9C343.5,505,332.1,516.5,317.9,516.5z M207,277.5
	c-5.1,0-10.3,0.6-15.3,1.7c-30.9,7.3-52.8,34.8-53,66.6v76.8c-0.5,11.1-6.9,21.1-16.6,26.3c-4.6,3.1-9.6,5.6-14.8,7.4
	c-0.9,0.3-1.7,0.4-2.6,0.4c-12.5,0-17.1,11-17.1,21.3v12.8c0,4.7,3.8,8.5,8.5,8.5h221.9c4.7,0,8.5-3.8,8.5-8.5v-12.8
	c0.2-5.6-1.5-11.2-4.8-15.7c-2.9-3.8-7.5-5.9-12.3-5.6c-0.9,0-1.9-0.1-2.7-0.4c-3.2-1.2-31.4-11.3-31.4-33.7v-76.8
	c0-31.9-22-59.6-53.1-66.6C217.2,278.1,212.1,277.5,207,277.5z"/>
<path class="st1" d="M207,559.1c-23.6,0-42.7-19.1-42.7-42.7v-8.5c0-4.7,3.8-8.5,8.5-8.5h68.3c4.7,0,8.5,3.8,8.5,8.5v8.5
	C249.7,540,230.6,559.1,207,559.1z M181.4,516.5c0,14.1,11.5,25.6,25.6,25.6s25.6-11.5,25.6-25.6H181.4z"/>
<path class="st1" d="M224.1,279.3h-1.8c-10-2.2-20.4-2.2-30.5,0c-4.6,1-9.1-1.9-10.1-6.5c-0.1-0.6-0.2-1.3-0.2-2v-18.9
	c0-14.1,11.5-25.6,25.6-25.6c14.1,0,25.6,11.5,25.6,25.6v18.9C232.7,275.6,228.9,279.4,224.1,279.3L224.1,279.3L224.1,279.3z
	 M207,260.5c2.8,0,5.7,0,8.5,0v-8.5c0-4.7-3.8-8.5-8.5-8.5s-8.5,3.8-8.5,8.5v8.5C201.3,260.5,204.2,260.5,207,260.5z"/>
</svg>
