<?xml version="1.0" encoding="utf-8"?>
<!-- Generator: Adobe Illustrator 19.0.0, SVG Export Plug-In . SVG Version: 6.00 Build 0)  -->
<svg version="1.1" id="Isolation_Mode" xmlns="http://www.w3.org/2000/svg" xmlns:xlink="http://www.w3.org/1999/xlink" x="0px"
	 y="0px" viewBox="0 0 316 388" style="enable-background:new 0 0 316 388;" xml:space="preserve">
<style type="text/css">
	.st0{fill:#EFF8F7;}
	.st1{fill:#213B78;}
</style>
<g>
	<path class="st0" d="M86,291.8V350H54v-44.5c7.9-4.2,17.2-8,28-11.5C82,294,83.5,293.2,86,291.8L86,291.8z M86,291.8"/>
	<path class="st0" d="M262,305.4V350h-32v-58.2c2.5,1.4,4,2.2,4,2.2C244.8,297.4,254.1,301.3,262,305.4L262,305.4z M262,305.4"/>
	<path class="st0" d="M42,374c0,4.4,3.6,8,8,8H6v-20c0,0,0.6-32.1,48-56.5V350h-4c-4.4,0-8,3.6-8,8V374z M42,374"/>
	<path class="st0" d="M310,362v20h-44c4.4,0,8-3.6,8-8v-16c0-4.4-3.6-8-8-8h-4v-44.6C309.8,329.7,310,362,310,362L310,362z M310,362
		"/>
	<path class="st0" d="M230,291.8V350H86v-58.2c7.8-4.3,25.4-14.4,32-21.8c0,0,16.5,20,40,20s40-20,40-20
		C204.6,277.4,222.2,287.5,230,291.8L230,291.8z M230,291.8"/>
	<path class="st0" d="M274,358v16c0,4.4-3.6,8-8,8H50c-4.4,0-8-3.6-8-8v-16c0-4.4,3.6-8,8-8h216C270.4,350,274,353.6,274,358
		L274,358z M274,358"/>
	<path class="st0" d="M190,15.2V82h-64V6h64V15.2z M190,15.2"/>
	<path class="st0" d="M254,82h-64V15.2C220.8,25.6,244.9,50.6,254,82L254,82z M254,82"/>
	<path class="st0" d="M126,15.2V82H62v-0.1C71.1,50.6,95.2,25.6,126,15.2L126,15.2z M126,15.2"/>
	<path class="st0" d="M274,114H42c0-8.8,7.2-32,16-32h200C266.8,82,274,105.2,274,114L274,114z M274,114"/>
	<path class="st0" d="M246,134c13.3,0,24,5,24,16c0,10.2-12.6,22.1-25,23.8c0.7-5.1,1-10.4,1-15.8V134z M246,134"/>
	<path class="st0" d="M70,158c0,5.4,0.3,10.6,1,15.8c-12.4-1.7-25-13.5-25-23.8c0-11,10.7-16,24-16V158z M70,158"/>
	<path class="st0" d="M118,244.6c11.7,6.1,25.1,9.4,40,9.4s28.3-3.4,40-9.4V270c0,0-16.5,20-40,20s-40-20-40-20V244.6z M118,244.6"
		/>
	<path class="st0" d="M118,244.6c-25.7-13.3-42.6-39.5-47-70.8c-0.7-5.1-1-10.4-1-15.8v-44h176v44c0,5.4-0.3,10.6-1,15.8
		c-4.3,31.3-21.3,57.5-47,70.8c-11.7,6.1-25.1,9.4-40,9.4S129.7,250.6,118,244.6L118,244.6z M118,244.6"/>
	<path class="st1" d="M264.7,300c-8.4-4.3-18-8.2-28.4-11.6c-0.6-0.3-1.8-1-3.4-1.9c-13.3-7.3-23.8-14.3-28.9-19v-19.4
		c24.3-13.9,40.9-38.8,46.2-69.4C264,174.8,276,161.9,276,150c0-12-9-20-24-21.7V120h28v-6c0-7.7-6.7-37.4-21.6-38
		c-10.1-29.9-33-53.7-62.4-65V0h-76v11C90.5,22.3,67.6,46.2,57.6,76C42.7,76.6,36,106.3,36,114v6h28v8.3C49,130,40,138,40,150
		c0,11.9,12,24.8,25.8,28.8c5.3,30.5,21.9,55.5,46.2,69.4v19.4c-5.1,4.8-15.6,11.7-28.9,19c-1.6,0.9-2.9,1.6-3.5,1.9
		c-10.7,3.5-20.3,7.5-28.4,11.7C1.2,325.9,0,360.4,0,361.9V388h316v-26C316,360.5,315.2,325.7,264.7,300L264.7,300z M256,309.1V344
		h-20v-43C243.2,303.4,249.9,306.1,256,309.1L256,309.1z M92,295.4c7.8-4.4,18.6-10.9,25.8-16.9c6.9,6.5,21.4,17.6,40.2,17.6
		s33.3-11.1,40.2-17.6c7.2,6,18,12.5,25.8,16.9V344H92V295.4z M158,260c12.1,0,23.5-2.1,34-6.2v13.8c-4.1,4.3-17.1,16.3-34,16.3
		c-16.8,0-29.9-12-34-16.3v-13.8C134.5,257.9,145.9,260,158,260L158,260z M264,150c0,4.9-5.3,11.6-12.2,15.3
		c0.1-2.4,0.2-24.9,0.2-24.9C262.7,141.9,264,147.4,264,150L264,150z M245.6,76H196V24C218.8,34,236.6,52.8,245.6,76L245.6,76z
		 M132,12h52v64h-52V12z M120,24v52H70.3C79.3,52.8,97.2,34,120,24L120,24z M58.1,88h199.7c2.8,1.1,7.6,11.4,9.4,20H48.7
		C50.6,99.4,55.4,89.1,58.1,88L58.1,88z M52,150c0-2.6,1.3-8.1,12-9.6c0,0,0.1,22.5,0.2,24.9C57.3,161.6,52,154.9,52,150L52,150z
		 M77,172.9c-0.6-4.6-1-9.7-1-14.9v-38h164v38c0,5.3-0.3,10.3-1,14.9c-4.1,29.9-20.1,54-43.8,66.3c-11.2,5.8-23.7,8.8-37.2,8.8
		s-26.1-2.9-37.2-8.8C97.1,227,81.1,202.8,77,172.9L77,172.9z M80,301v43H60v-34.8C65.9,306.3,72.6,303.5,80,301L80,301z M12,362.1
		c0.1-1.7,1.7-25.4,36-46.3v28.4c-6.8,1-12,6.8-12,13.8v16c0,0.7,0.1,1.3,0.2,2H12V362.1z M50,376c-1.1,0-2-0.9-2-2v-16
		c0-1.1,0.9-2,2-2h216c1.1,0,2,0.9,2,2v16c0,1.1-0.9,2-2,2H50z M304,376h-24.2c0.1-0.7,0.2-1.3,0.2-2v-16c0-7-5.2-12.9-12-13.8
		v-28.6c34.8,21,36,45.1,36,46.5V376z M304,376"/>
	<path class="st1" d="M158,204h16v-12h-10v-26h-12v32C152,201.3,154.7,204,158,204L158,204z M158,204"/>
</g>
</svg>
