<svg xmlns="http://www.w3.org/2000/svg" xmlns:xlink="http://www.w3.org/1999/xlink" preserveAspectRatio="xMidYMid" width="17" height="17" viewBox="0 0 17 17">
  <defs>
    <style>
      .cls-1 {
        fill: #3b3e4a;
        opacity: 0.5;
        fill-rule: evenodd;
      }
    </style>
  </defs>
  <path d="M15.999,3.228 L12.999,3.228 L12.999,1.890 L11.666,1.890 L11.666,3.228 L9.666,3.228 L9.666,1.890 L8.333,1.890 L8.333,3.228 L6.333,3.228 L6.333,1.890 L5.000,1.890 L5.000,3.228 L2.000,3.228 L2.000,7.454 L2.000,7.454 L2.000,8.793 L2.000,8.793 L2.000,15.947 L15.999,15.947 L15.999,3.228 ZM3.333,4.567 L5.000,4.567 L5.000,5.906 L6.333,5.906 L6.333,4.567 L8.333,4.567 L8.333,5.906 L9.666,5.906 L9.666,4.567 L11.666,4.567 L11.666,5.906 L12.999,5.906 L12.999,4.567 L14.666,4.567 L14.667,7.579 L3.333,7.579 L3.333,4.567 ZM14.666,14.608 L3.333,14.608 L3.333,8.918 L14.667,8.918 L14.666,14.608 Z" class="cls-1"/>
</svg>
