<svg xmlns="http://www.w3.org/2000/svg" xmlns:xlink="http://www.w3.org/1999/xlink" preserveAspectRatio="xMidYMid" width="18" height="18" viewBox="0 0 18 18">
  <defs>
    <style>
      .cls-1 {
        fill: #000;
        opacity: 0.5;
        fill-rule: evenodd;
      }
    </style>
  </defs>
  <path d="M9.500,16.922 C5.375,16.922 2.000,13.526 2.000,9.374 C2.000,5.222 5.375,1.826 9.500,1.826 C13.625,1.826 17.000,5.222 17.000,9.374 C17.000,13.526 13.625,16.922 9.500,16.922 ZM9.500,3.335 C6.200,3.335 3.500,6.053 3.500,9.374 C3.500,12.695 6.200,15.413 9.500,15.413 C12.800,15.413 15.500,12.695 15.500,9.374 C15.500,6.053 12.800,3.335 9.500,3.335 ZM8.750,10.129 L8.750,5.600 L9.875,5.600 L9.875,9.525 L13.250,11.563 L12.650,12.544 L8.750,10.129 Z" class="cls-1"/>
</svg>
