<svg xmlns="http://www.w3.org/2000/svg" xmlns:xlink="http://www.w3.org/1999/xlink" preserveAspectRatio="xMidYMid" width="24" height="24" viewBox="0 0 24 24">
  <defs>
    <style>
      .cls-1 {
        fill: #213b78;
        fill-rule: evenodd;
      }
    </style>
  </defs>
  <path d="M12.000,24.000 C5.383,24.000 -0.000,18.617 -0.000,12.000 C-0.000,5.383 5.383,-0.000 12.000,-0.000 C18.617,-0.000 24.000,5.383 24.000,12.000 C24.000,18.617 18.617,24.000 12.000,24.000 ZM12.000,1.967 C6.468,1.967 1.967,6.468 1.967,12.000 C1.967,17.532 6.468,22.033 12.000,22.033 C17.532,22.033 22.033,17.532 22.033,12.000 C22.033,6.468 17.532,1.967 12.000,1.967 ZM10.762,16.606 C10.570,16.798 10.318,16.894 10.066,16.894 C9.815,16.894 9.563,16.798 9.371,16.606 L5.418,12.652 C5.034,12.268 5.034,11.646 5.418,11.261 C5.802,10.877 6.425,10.877 6.809,11.261 L10.066,14.519 L17.191,7.394 C17.575,7.010 18.198,7.010 18.582,7.394 C18.966,7.778 18.966,8.401 18.582,8.785 L10.762,16.606 Z" class="cls-1"/>
</svg>
