<?xml version="1.0" encoding="utf-8"?>
<!-- Generator: Adobe Illustrator 19.0.0, SVG Export Plug-In . SVG Version: 6.00 Build 0)  -->
<svg version="1.1" id="Layer_1" xmlns="http://www.w3.org/2000/svg" xmlns:xlink="http://www.w3.org/1999/xlink" x="0px" y="0px"
	 viewBox="0 0 153.5 270.5" style="enable-background:new 0 0 153.5 270.5;" xml:space="preserve">
<style type="text/css">
	.st0{fill:#EFF8F7;}
	.st1{fill:#223C77;}
</style>
<g id="XMLID_2_">
	<path id="XMLID_27_" class="st0" d="M22,265.5c-9.4,0-17-7.6-17-17V22c0-9.4,7.6-17,17-17h109.5c9.4,0,17,7.6,17,17v226.5
		c0,9.4-7.6,17-17,17H22z"/>
	<path id="XMLID_24_" class="st1" d="M131.5,10c6.6,0,12,5.4,12,12v226.5c0,6.6-5.4,12-12,12H22c-6.6,0-12-5.4-12-12V22
		c0-6.6,5.4-12,12-12H131.5 M131.5,0H22C9.9,0,0,9.9,0,22v226.5c0,12.1,9.9,22,22,22h109.5c12.1,0,22-9.9,22-22V22
		C153.5,9.9,143.6,0,131.5,0L131.5,0z"/>
</g>
<rect id="XMLID_3_" y="27.9" class="st1" width="153.5" height="10"/>
<path id="XMLID_4_" class="st1" d="M83.8,22.5h-14c-2.1,0-3.8-1.7-3.8-3.7v0c0-2.1,1.7-3.7,3.8-3.7h14c2.1,0,3.8,1.7,3.8,3.7v0
	C87.5,20.8,85.8,22.5,83.8,22.5z"/>
<path id="XMLID_5_" class="st1" d="M99.9,255H53.6c-2.8,0-5-2.2-5-5v0c0-2.8,2.2-5,5-5h46.3c2.8,0,5,2.2,5,5v0
	C104.9,252.8,102.6,255,99.9,255z"/>
<path id="XMLID_7_" class="st1" d="M123.9,207.8l-25.8-21.5L79,192.9l-2.9-13.6l40.4-6.4c2.7-0.4,4.6-3,4.2-5.7
	c-0.4-2.7-3-4.6-5.7-4.2l-20.5,3.3L92,146l18-9.2l-5-12.3l16.7-13.8c2.1-1.8,2.4-4.9,0.7-7c-1.8-2.1-4.9-2.4-7-0.7L101,114.9
	l-3.1-7.6c-1-2.6-4-3.8-6.5-2.7c-2.6,1-3.8,4-2.7,6.5l8.6,21.1l-16,8.2l3.2,27.6L74,169.6l-0.1-0.6l-12.3-16l9.2-12.9
	c1.6-2.2,1.1-5.4-1.2-7c-2.2-1.6-5.4-1.1-7,1.2l-7.5,10.5l-2.1-2.8l-2.5-27.6c-0.3-2.8-2.7-4.8-5.4-4.5c-2.7,0.3-4.8,2.7-4.5,5.4
	l2.8,30.4l21.2,27.6l9.8,45.8H52.2l-6.5-14.7v-20.3l-14.4-18.7c-1.7-2.2-4.8-2.6-7-0.9c-2.2,1.7-2.6,4.8-0.9,7l12.3,16v19l5.6,12.6
	H23.9l-6.6,44.3c-0.4,2.7,1.5,5.3,4.2,5.7c0.3,0,0.5,0.1,0.7,0.1c2.4,0,4.6-1.8,4.9-4.3l5.4-35.7h54.2l-5.6-26.4l15-5.1l21.5,17.9
	c0.9,0.8,2.1,1.2,3.2,1.2c1.4,0,2.9-0.6,3.8-1.8C126.4,212.7,126.1,209.6,123.9,207.8z"/>
</svg>
