<svg xmlns="http://www.w3.org/2000/svg" xmlns:xlink="http://www.w3.org/1999/xlink" preserveAspectRatio="xMidYMid" width="11" height="19" viewBox="0 0 11 19">
  <defs>
    <style>
      .cls-1 {
        fill: #4867aa;
        fill-rule: evenodd;
      }
    </style>
  </defs>
  <path d="M9.385,1.847 L7.365,1.844 C5.095,1.844 3.629,3.363 3.629,5.715 L3.629,7.500 L1.598,7.500 C1.422,7.500 1.280,7.644 1.280,7.821 L1.280,10.407 C1.280,10.585 1.422,10.728 1.598,10.728 L3.629,10.728 L3.629,17.254 C3.629,17.431 3.771,17.574 3.946,17.574 L6.596,17.574 C6.772,17.574 6.914,17.431 6.914,17.254 L6.914,10.728 L9.289,10.728 C9.464,10.728 9.606,10.585 9.606,10.407 L9.607,7.821 C9.607,7.736 9.574,7.654 9.514,7.594 C9.454,7.534 9.374,7.500 9.289,7.500 L6.914,7.500 L6.914,5.987 C6.914,5.260 7.086,4.890 8.024,4.890 L9.384,4.890 C9.560,4.890 9.702,4.746 9.702,4.569 L9.702,2.168 C9.702,1.991 9.560,1.848 9.385,1.847 Z" class="cls-1"/>
</svg>
