<?xml version="1.0" encoding="utf-8"?>
<!-- Generator: Adobe Illustrator 19.0.0, SVG Export Plug-In . SVG Version: 6.00 Build 0)  -->
<svg version="1.1" id="Capa_1" xmlns="http://www.w3.org/2000/svg" xmlns:xlink="http://www.w3.org/1999/xlink" x="0px" y="0px"
	 viewBox="90.2 416.3 82.7 75.9" style="enable-background:new 90.2 416.3 82.7 75.9;" xml:space="preserve">
<style type="text/css">
	.st0{fill:#EFF8F7;}
	.st1{fill:#213B78;}
</style>
<path class="st0" d="M145.3,475.5l19.8-7.8c3-1.1,6.2,1.1,6.2,4.3c0,1.9-1.1,3.6-2.9,4.3l-25.7,12.2c-3.1,1.4-6.4,2.1-9.8,2.1
	c-3,0-6-0.6-8.8-1.7l-15.7-6.4h-3.1v-22.6h12.3c1.7,0,3.3,0.4,4.8,1.2l8.5,4.8c0.5,0.3,1,0.4,1.6,0.4h10.5c2.7,0,4.8,2.2,4.8,4.8
	C147.7,473.1,146.7,474.6,145.3,475.5z"/>
<g>
	<path class="st0" d="M154.2,443.8c4.5,0,8.1,3.6,8.1,8.1c0,4.5-3.6,8.1-8.1,8.1s-8.1-3.6-8.1-8.1
		C146.1,447.4,149.7,443.8,154.2,443.8z"/>
	<path class="st0" d="M147.7,417.9c4.5,0,8.1,3.6,8.1,8.1c0,4.5-3.6,8.1-8.1,8.1s-8.1-3.6-8.1-8.1
		C139.6,421.6,143.2,417.9,147.7,417.9z"/>
	<path class="st0" d="M128.3,437.3c4.5,0,8.1,3.6,8.1,8.1c0,4.5-3.6,8.1-8.1,8.1c-4.5,0-8.1-3.6-8.1-8.1
		C120.2,440.9,123.8,437.3,128.3,437.3z"/>
</g>
<path class="st0" d="M105.2,482.6v3.2H91.8v-29.1h13.4v3.2V482.6z M100.3,463.2c0-0.9-0.7-1.6-1.6-1.6s-1.6,0.7-1.6,1.6
	c0,0.9,0.7,1.6,1.6,1.6S100.3,464.1,100.3,463.2z"/>
<path class="st1" d="M98.7,461.6c-0.9,0-1.6,0.7-1.6,1.6c0,0.9,0.7,1.6,1.6,1.6s1.6-0.7,1.6-1.6C100.3,462.3,99.6,461.6,98.7,461.6z
	"/>
<path class="st1" d="M170.2,466.9c-1.7-1.2-3.8-1.4-5.7-0.8c0,0,0,0,0,0l-15.3,6c0-0.3,0.1-0.6,0.1-0.9c0-3.6-2.9-6.5-6.5-6.5h-10.5
	c-0.3,0-0.6-0.1-0.8-0.2l-8.5-4.8c-1.7-1-3.6-1.5-5.5-1.5h-10.7v-1.6c0-0.9-0.7-1.6-1.6-1.6H91.8c-0.9,0-1.6,0.7-1.6,1.6v29.1
	c0,0.9,0.7,1.6,1.6,1.6h13.4c0.9,0,1.6-0.7,1.6-1.6v-1.6h1.2l15.4,6.2c3,1.2,6.2,1.8,9.4,1.8c3.6,0,7.1-0.8,10.4-2.3c0,0,0,0,0,0
	l25.7-12.2c2.3-1,3.9-3.2,3.9-5.8C172.9,470,171.9,468.1,170.2,466.9z M103.6,484.2H93.4v-25.9h10.2V484.2z M167.8,474.8
	C167.7,474.8,167.7,474.8,167.8,474.8L142,487.1c-2.9,1.3-5.9,2-9.1,2c-2.8,0-5.6-0.5-8.2-1.6l-15.7-6.4c-0.2-0.1-0.4-0.1-0.6-0.1
	h-1.5v-19.4h10.7c1.4,0,2.8,0.4,4,1l8.5,4.8c0.7,0.4,1.5,0.6,2.4,0.6h10.5c1.8,0,3.2,1.4,3.2,3.2c0,1.1-0.6,2.2-1.5,2.7l0,0
	c-0.1,0-0.2,0.1-0.3,0.2c-0.4,0.2-0.9,0.3-1.3,0.3h-16.4c-2.7,0-4.8,2.2-4.8,4.8c0,0.9,0.7,1.6,1.6,1.6c0.9,0,1.6-0.7,1.6-1.6
	c0-0.9,0.7-1.6,1.6-1.6h16.4c1.1,0,2.1-0.3,3.1-0.8l19.7-7.7c0.9-0.3,1.9-0.2,2.7,0.4c0.8,0.6,1.3,1.5,1.3,2.5
	C169.7,473.2,168.9,474.3,167.8,474.8z"/>
<path class="st1" d="M98.7,468c-0.9,0-1.6,0.7-1.6,1.6v9.7c0,0.9,0.7,1.6,1.6,1.6c0.9,0,1.6-0.7,1.6-1.6v-9.7
	C100.3,468.8,99.6,468,98.7,468z"/>
<path class="st1" d="M144.5,451.9c0,5.3,4.3,9.7,9.7,9.7s9.7-4.3,9.7-9.7c0-5.3-4.3-9.7-9.7-9.7S144.5,446.5,144.5,451.9z
	 M160.6,451.9c0,3.6-2.9,6.5-6.5,6.5s-6.5-2.9-6.5-6.5s2.9-6.5,6.5-6.5S160.6,448.3,160.6,451.9z"/>
<path class="st1" d="M147.7,435.7c5.3,0,9.7-4.3,9.7-9.7c0-5.3-4.3-9.7-9.7-9.7s-9.7,4.3-9.7,9.7C138,431.4,142.3,435.7,147.7,435.7
	z M147.7,419.6c3.6,0,6.5,2.9,6.5,6.5s-2.9,6.5-6.5,6.5s-6.5-2.9-6.5-6.5S144.1,419.6,147.7,419.6z"/>
<path class="st1" d="M128.3,455.1c5.3,0,9.7-4.3,9.7-9.7c0-5.3-4.3-9.7-9.7-9.7c-5.3,0-9.7,4.3-9.7,9.7
	C118.6,450.8,123,455.1,128.3,455.1z M128.3,438.9c3.6,0,6.5,2.9,6.5,6.5s-2.9,6.5-6.5,6.5c-3.6,0-6.5-2.9-6.5-6.5
	S124.7,438.9,128.3,438.9z"/>
</svg>
