<svg xmlns="http://www.w3.org/2000/svg" xmlns:xlink="http://www.w3.org/1999/xlink" preserveAspectRatio="xMidYMid" width="20" height="5" viewBox="0 0 20 5">
  <defs>
    <style>
      .cls-1 {
        fill: #000;
        opacity: 0.5;
        fill-rule: evenodd;
      }
    </style>
  </defs>
  <path d="M2.500,-0.000 C1.125,-0.000 -0.000,1.125 -0.000,2.500 C-0.000,3.875 1.125,5.000 2.500,5.000 C3.875,5.000 5.000,3.875 5.000,2.500 C5.000,1.125 3.875,-0.000 2.500,-0.000 ZM17.500,-0.000 C16.125,-0.000 15.000,1.125 15.000,2.500 C15.000,3.875 16.125,5.000 17.500,5.000 C18.875,5.000 20.000,3.875 20.000,2.500 C20.000,1.125 18.875,-0.000 17.500,-0.000 ZM10.000,-0.000 C8.625,-0.000 7.500,1.125 7.500,2.500 C7.500,3.875 8.625,5.000 10.000,5.000 C11.375,5.000 12.500,3.875 12.500,2.500 C12.500,1.125 11.375,-0.000 10.000,-0.000 Z" class="cls-1"/>
</svg>
