<svg xmlns="http://www.w3.org/2000/svg" xmlns:xlink="http://www.w3.org/1999/xlink" preserveAspectRatio="xMidYMid" width="24" height="27" viewBox="0 0 24 27">
  <defs>
    <style>
      .cls-1 {
        fill: #213b78;
        fill-rule: evenodd;
      }
    </style>
  </defs>
  <path d="M12.843,-0.000 C10.658,-0.000 8.876,1.810 8.876,4.030 C8.876,6.249 10.658,8.060 12.843,8.060 C15.028,8.060 16.810,6.249 16.810,4.030 C16.810,1.810 15.028,-0.000 12.843,-0.000 ZM12.843,1.007 C14.492,1.007 15.818,2.355 15.818,4.030 C15.818,5.705 14.492,7.052 12.843,7.052 C11.194,7.052 9.868,5.705 9.868,4.030 C9.868,2.355 11.194,1.007 12.843,1.007 ZM12.843,2.015 C11.750,2.015 10.859,2.920 10.859,4.030 C10.855,4.370 11.360,4.370 11.355,4.030 C11.355,3.192 12.018,2.519 12.843,2.519 C13.178,2.523 13.178,2.010 12.843,2.015 ZM5.746,4.527 C3.999,4.527 2.572,5.976 2.572,7.751 C2.572,9.525 3.999,10.975 5.746,10.975 C7.493,10.975 8.919,9.525 8.919,7.751 C8.919,5.976 7.492,4.527 5.746,4.527 ZM5.746,5.534 C6.956,5.534 7.927,6.521 7.927,7.751 C7.927,8.981 6.956,9.967 5.746,9.967 C4.535,9.967 3.564,8.981 3.564,7.751 C3.564,6.521 4.535,5.534 5.746,5.534 ZM19.841,6.643 C19.244,6.643 18.750,7.145 18.750,7.751 C18.750,8.357 19.244,8.859 19.841,8.859 C20.438,8.859 20.932,8.357 20.932,7.751 C20.932,7.145 20.438,6.643 19.841,6.643 ZM2.876,12.039 C1.293,12.039 -0.000,13.353 -0.000,14.961 C-0.000,16.568 1.293,17.882 2.876,17.882 C4.459,17.882 5.752,16.568 5.752,14.961 C5.752,13.353 4.459,12.039 2.876,12.039 ZM2.876,13.046 C3.923,13.046 4.760,13.898 4.760,14.961 C4.760,16.024 3.923,16.875 2.876,16.875 C1.829,16.875 0.992,16.024 0.992,14.961 C0.992,13.898 1.829,13.046 2.876,13.046 ZM22.711,13.651 C22.005,13.651 21.421,14.243 21.421,14.961 C21.421,15.678 22.005,16.270 22.711,16.270 C23.417,16.270 24.000,15.678 24.000,14.961 C24.000,14.243 23.417,13.651 22.711,13.651 ZM22.711,14.659 C22.881,14.659 23.008,14.788 23.008,14.961 C23.008,15.134 22.881,15.263 22.711,15.263 C22.540,15.263 22.413,15.134 22.413,14.961 C22.413,14.788 22.540,14.659 22.711,14.659 ZM5.746,19.551 C4.382,19.551 3.266,20.685 3.266,22.070 C3.266,23.455 4.382,24.588 5.746,24.588 C7.109,24.588 8.225,23.455 8.225,22.070 C8.225,20.685 7.109,19.551 5.746,19.551 ZM19.841,20.458 C18.971,20.458 18.254,21.185 18.254,22.070 C18.254,22.954 18.971,23.681 19.841,23.681 C20.711,23.681 21.428,22.954 21.428,22.070 C21.428,21.185 20.712,20.458 19.841,20.458 ZM5.746,20.558 C6.573,20.558 7.233,21.229 7.233,22.070 C7.233,22.910 6.573,23.581 5.746,23.581 C4.918,23.581 4.258,22.910 4.258,22.070 C4.258,21.229 4.918,20.558 5.746,20.558 ZM19.841,21.465 C20.175,21.465 20.436,21.730 20.436,22.070 C20.436,22.409 20.175,22.674 19.841,22.674 C19.506,22.674 19.246,22.409 19.246,22.070 C19.246,21.730 19.507,21.465 19.841,21.465 ZM12.843,22.970 C11.753,22.970 10.859,23.878 10.859,24.985 C10.859,26.092 11.753,27.000 12.843,27.000 C13.932,27.000 14.826,26.092 14.826,24.985 C14.826,23.878 13.932,22.970 12.843,22.970 ZM12.843,23.978 C13.397,23.978 13.835,24.423 13.835,24.985 C13.835,25.547 13.397,25.993 12.843,25.993 C12.289,25.993 11.851,25.547 11.851,24.985 C11.851,24.423 12.289,23.978 12.843,23.978 Z" class="cls-1"/>
</svg>
