<svg xmlns="http://www.w3.org/2000/svg" xmlns:xlink="http://www.w3.org/1999/xlink" preserveAspectRatio="xMidYMid" width="18" height="18" viewBox="0 0 18 18">
  <defs>
    <style>
      .cls-1 {
        fill: #0077b5;
        fill-rule: evenodd;
      }
    </style>
  </defs>
  <path d="M17.285,10.812 L17.285,17.366 L13.676,17.366 L13.676,11.251 C13.676,9.715 13.154,8.667 11.848,8.667 C10.851,8.667 10.257,9.373 9.996,10.057 C9.901,10.301 9.877,10.641 9.877,10.983 L9.877,17.366 L6.267,17.366 C6.267,17.366 6.315,7.009 6.267,5.936 L9.876,5.936 L9.876,7.556 C9.869,7.568 9.859,7.581 9.853,7.593 L9.876,7.593 L9.876,7.556 C10.356,6.778 11.212,5.668 13.130,5.668 C15.505,5.668 17.285,7.301 17.285,10.812 ZM2.490,0.426 C1.255,0.426 0.447,1.279 0.447,2.401 C0.447,3.498 1.232,4.377 2.442,4.377 L2.466,4.377 C3.725,4.377 4.508,3.498 4.508,2.401 C4.485,1.279 3.725,0.426 2.490,0.426 ZM0.662,17.366 L4.271,17.366 L4.271,5.936 L0.662,5.936 L0.662,17.366 Z" class="cls-1"/>
</svg>
