<svg xmlns="http://www.w3.org/2000/svg" xmlns:xlink="http://www.w3.org/1999/xlink" preserveAspectRatio="xMidYMid" width="27" height="27" viewBox="0 0 27 27">
  <defs>
    <style>
      .cls-1 {
        fill: #11db39;
        fill-rule: evenodd;
      }
    </style>
  </defs>
  <path d="M14.000,9.000 C16.761,9.000 19.000,11.239 19.000,14.000 C19.000,16.761 16.761,19.000 14.000,19.000 C11.239,19.000 9.000,16.761 9.000,14.000 C9.000,11.239 11.239,9.000 14.000,9.000 Z" class="cls-1"/>
  <path d="M14.000,2.000 C7.383,2.000 2.000,7.383 2.000,14.000 C2.000,20.617 7.383,26.000 14.000,26.000 C20.617,26.000 26.000,20.617 26.000,14.000 C26.000,7.383 20.617,2.000 14.000,2.000 ZM14.000,24.033 C8.468,24.033 3.967,19.532 3.967,14.000 C3.967,8.468 8.468,3.967 14.000,3.967 C19.532,3.967 24.033,8.468 24.033,14.000 C24.033,19.532 19.532,24.033 14.000,24.033 Z" class="cls-1"/>
</svg>
