<svg xmlns="http://www.w3.org/2000/svg" xmlns:xlink="http://www.w3.org/1999/xlink" preserveAspectRatio="xMidYMid" width="20" height="27" viewBox="0 0 20 27">
  <defs>
    <style>
      .cls-1 {
        fill: #213b78;
        fill-rule: evenodd;
      }
    </style>
  </defs>
  <path d="M18.190,3.611 L16.777,3.611 L16.777,6.161 C16.777,8.718 15.389,11.068 12.869,12.780 C12.551,12.996 12.353,13.462 12.353,13.996 C12.353,14.530 12.551,14.996 12.870,15.213 C15.389,16.924 16.777,19.274 16.777,21.831 L16.777,24.381 L18.190,24.381 C18.631,24.381 18.989,24.743 18.989,25.188 C18.989,25.635 18.631,25.996 18.190,25.996 L1.802,25.996 C1.361,25.996 1.003,25.635 1.003,25.188 C1.003,24.743 1.360,24.381 1.802,24.381 L3.215,24.381 L3.215,21.831 C3.215,19.274 4.603,16.924 7.122,15.212 C7.441,14.996 7.639,14.530 7.639,13.996 C7.639,13.462 7.441,12.996 7.122,12.780 C4.603,11.068 3.215,8.718 3.215,6.161 L3.215,3.611 L1.802,3.611 C1.361,3.611 1.003,3.249 1.003,2.803 C1.003,2.358 1.360,1.996 1.802,1.996 L18.190,1.996 C18.631,1.996 18.989,2.358 18.989,2.803 C18.989,3.249 18.631,3.611 18.190,3.611 ZM13.236,24.381 C12.710,23.137 11.207,21.563 9.996,20.522 C8.785,21.563 7.282,23.137 6.756,24.381 L13.236,24.381 ZM4.813,3.611 L4.813,6.161 C4.813,8.862 6.818,10.627 8.013,11.439 C8.779,11.960 9.236,12.915 9.236,13.996 C9.236,15.077 8.779,16.032 8.013,16.553 C6.818,17.365 4.813,19.130 4.813,21.831 L4.812,21.831 L4.812,24.381 L5.077,24.381 C5.734,21.886 9.085,19.174 9.504,18.843 C9.793,18.614 10.199,18.614 10.488,18.843 C10.907,19.174 14.258,21.886 14.915,24.381 L15.179,24.381 L15.179,21.831 C15.179,19.130 13.174,17.365 11.979,16.553 C11.212,16.032 10.755,15.077 10.755,13.996 C10.755,12.916 11.212,11.960 11.978,11.439 C13.174,10.627 15.179,8.862 15.179,6.161 L15.179,3.611 L4.813,3.611 ZM9.996,13.149 C9.555,13.149 9.197,12.788 9.197,12.342 L9.197,10.914 C9.197,10.468 9.555,10.107 9.996,10.107 C10.437,10.107 10.795,10.468 10.795,10.914 L10.795,12.342 C10.795,12.788 10.437,13.149 9.996,13.149 ZM9.996,15.817 C10.206,15.817 10.412,15.903 10.560,16.053 C10.710,16.203 10.794,16.412 10.794,16.624 C10.794,16.836 10.710,17.045 10.560,17.195 C10.412,17.345 10.206,17.432 9.996,17.432 C9.786,17.432 9.579,17.345 9.431,17.195 C9.282,17.045 9.197,16.836 9.197,16.624 C9.197,16.412 9.282,16.203 9.431,16.053 C9.579,15.903 9.786,15.817 9.996,15.817 Z" class="cls-1"/>
</svg>
