<?xml version="1.0" encoding="utf-8"?>
<!-- Generator: Adobe Illustrator 19.0.0, SVG Export Plug-In . SVG Version: 6.00 Build 0)  -->
<svg version="1.1" id="Capa_1" xmlns="http://www.w3.org/2000/svg" xmlns:xlink="http://www.w3.org/1999/xlink" x="0px" y="0px"
	 viewBox="-49 141 512 512" style="enable-background:new -49 141 512 512;" xml:space="preserve">
<style type="text/css">
	.st0{fill:#213B78;stroke:#213B78;stroke-width:35;stroke-miterlimit:10;}
	.st1{fill:#EFF8F7;}
</style>
<path class="st0" d="M438.5,628.5c-2.1,2.1-4.8,3.1-7.5,3.1c-2.7,0-5.5-1-7.5-3.1L273.9,479c-32,28.5-74.1,46-120.3,46
	c-100,0-181.3-81.3-181.3-181.3s81.4-181.3,181.3-181.3S335,243.7,335,343.7c0,46.2-17.5,88.2-46,120.3l149.5,149.5
	C442.7,617.6,442.7,624.4,438.5,628.5z"/>
<path class="st1" d="M153.7,183.7c88.4,0,160,71.6,160,160s-71.6,160-160,160s-160-71.6-160-160S65.3,183.7,153.7,183.7z"/>
</svg>
