<svg xmlns="http://www.w3.org/2000/svg" xmlns:xlink="http://www.w3.org/1999/xlink" preserveAspectRatio="xMidYMid" width="17" height="15" viewBox="0 0 17 15">
  <defs>
    <style>
      .cls-1 {
        fill: #1da1f2;
        fill-rule: evenodd;
      }
    </style>
  </defs>
  <path d="M15.945,1.035 C15.325,1.420 14.639,1.700 13.908,1.851 C13.323,1.197 12.491,0.789 11.569,0.789 C9.798,0.789 8.363,2.295 8.363,4.150 C8.363,4.413 8.391,4.670 8.445,4.916 C5.781,4.776 3.419,3.437 1.838,1.404 C1.562,1.899 1.405,2.477 1.405,3.093 C1.405,4.260 1.971,5.288 2.830,5.890 C2.305,5.872 1.811,5.720 1.378,5.468 L1.378,5.510 C1.378,7.139 2.484,8.496 3.949,8.806 C3.681,8.882 3.398,8.924 3.105,8.924 C2.898,8.924 2.698,8.903 2.501,8.864 C2.910,10.198 4.093,11.170 5.495,11.198 C4.399,12.099 3.016,12.636 1.514,12.636 C1.255,12.636 1.000,12.620 0.749,12.590 C2.168,13.543 3.853,14.100 5.664,14.100 C11.560,14.100 14.784,8.978 14.784,4.537 L14.774,4.102 C15.402,3.630 15.947,3.037 16.376,2.364 C15.801,2.631 15.184,2.813 14.536,2.894 C15.197,2.478 15.705,1.818 15.945,1.035 Z" class="cls-1"/>
</svg>
