<svg xmlns="http://www.w3.org/2000/svg" xmlns:xlink="http://www.w3.org/1999/xlink" preserveAspectRatio="xMidYMid" width="24" height="24" viewBox="0 0 24 24">
  <defs>
    <style>
      .cls-1 {
        fill: #213b78;
        fill-rule: evenodd;
      }
    </style>
  </defs>
  <path d="M12.000,-0.000 C5.384,-0.000 -0.000,5.383 -0.000,12.000 C-0.000,18.617 5.384,24.000 12.000,24.000 C18.617,24.000 24.000,18.617 24.000,12.000 C24.000,5.383 18.617,-0.000 12.000,-0.000 ZM12.000,22.500 C6.210,22.500 1.500,17.790 1.500,12.000 C1.500,6.210 6.210,1.500 12.000,1.500 C17.790,1.500 22.500,6.210 22.500,12.000 C22.500,17.790 17.790,22.500 12.000,22.500 ZM15.000,8.250 L9.000,8.250 C8.585,8.250 8.250,8.585 8.250,9.000 L8.250,15.000 C8.250,15.414 8.585,15.750 9.000,15.750 L15.000,15.750 C15.414,15.750 15.750,15.414 15.750,15.000 L15.750,9.000 C15.750,8.585 15.414,8.250 15.000,8.250 ZM14.250,14.250 L9.750,14.250 L9.750,9.750 L14.250,9.750 L14.250,14.250 Z" class="cls-1"/>
</svg>
